<?xml version="1.0" encoding="utf-8"?>
<!-- Generator: Adobe Illustrator 25.0.1, SVG Export Plug-In . SVG Version: 6.00 Build 0)  -->
<svg version="1.1" id="Слой_1" xmlns="http://www.w3.org/2000/svg" xmlns:xlink="http://www.w3.org/1999/xlink" x="0px" y="0px"
	 viewBox="0 0 564 147" style="enable-background:new 0 0 564 147;" xml:space="preserve">
<style type="text/css">
	.st0{display:none;}
	.st1{display:inline;fill:#002329;}
	.st2{fill:#9254DE;}
	.st3{fill:#EB2F96;}
</style>
<g class="st0">
	<rect x="-45" y="-223" class="st1" width="700" height="700"/>
</g>
<path class="st2" d="M31.5,147h-1c-7.42,0-13.5-6.07-13.5-13.5v-80C17,46.07,23.07,40,30.5,40h1C38.93,40,45,46.07,45,53.5v80
	C45,140.93,38.93,147,31.5,147z"/>
<path class="st2" d="M102,147L102,147c-7.73,0-14-6.27-14-14V45c0-7.73,6.27-14,14-14h0c7.73,0,14,6.27,14,14v88
	C116,140.73,109.73,147,102,147z"/>
<path class="st2" d="M172.5,147L172.5,147c-7.46,0-13.5-6.04-13.5-13.5v-67c0-7.46,6.04-13.5,13.5-13.5h0
	c7.46,0,13.5,6.04,13.5,13.5v67C186,140.96,179.96,147,172.5,147z"/>
<path class="st2" d="M323.13,88.91h22.67c0.77-4.19,1.19-8.5,1.19-12.91c0-39.21-31.79-71-71-71s-71,31.79-71,71s31.79,71,71,71
	c17.86,0,34.16-6.61,46.64-17.49c3.01-1.98,5-5.38,5-9.25c0-6.11-4.95-11.06-11.06-11.06c-3.3,0-6.25,1.45-8.28,3.74l-0.15-0.14
	c-8.59,7.52-19.83,12.08-32.14,12.08c-22.52,0-41.47-15.24-47.13-35.96h73.67H323.13z M276,27.13c22.52,0,41.47,15.24,47.13,35.96
	h-94.27C234.53,42.37,253.48,27.13,276,27.13z"/>
<path class="st3" d="M365.64,88.91h73.67c-5.66,20.72-24.61,35.96-47.13,35.96c-12.31,0-23.55-4.56-32.14-12.08l-0.15,0.14
	c-2.03-2.29-4.98-3.74-8.28-3.74c-6.11,0-11.06,4.95-11.06,11.06c0,3.87,1.99,7.27,5,9.25c12.48,10.89,28.78,17.49,46.64,17.49
	c39.21,0,71-31.79,71-71s-31.79-71-71-71s-71,31.79-71,71c0,4.41,0.42,8.72,1.19,12.91h22.67H365.64z M439.32,63.09h-94.27
	c5.66-20.72,24.61-35.96,47.13-35.96S433.65,42.37,439.32,63.09z"/>
<path class="st2" d="M116,52.75H89c0-12.27-9.98-22.25-22.25-22.25S44.5,40.48,44.5,52.75h-27C17.5,25.59,39.59,3.5,66.75,3.5
	S116,25.59,116,52.75z"/>
<path class="st2" d="M186,65.75h-27c0-12.27-9.98-22.25-22.25-22.25c-11.92,0-21.25,9.77-21.25,22.25h-27
	c0-27.62,21.19-49.25,48.25-49.25C163.91,16.5,186,38.59,186,65.75z"/>
<g>
	<path class="st3" d="M544,147c-33.08,0-60-26.92-60-60V14c0-7.73,6.27-14,14-14s14,6.27,14,14v73c0,17.65,14.36,32,32,32
		c7.73,0,14,6.27,14,14C558,140.73,551.73,147,544,147z"/>
	<path class="st3" d="M549.62,57H498c-7.73,0-14-6.27-14-14s6.27-14,14-14h51.62c7.73,0,14,6.27,14,14S557.35,57,549.62,57z"/>
</g>
<path class="st2" d="M30.5,62.5C23.04,62.5,17,56.46,17,49c0-1.63-1.37-3-3-3C6.54,46,0.5,39.96,0.5,32.5S6.54,19,14,19
	c16.54,0,30,13.46,30,30C44,56.46,37.96,62.5,30.5,62.5z"/>
<path class="st2" d="M333,89h-24c-7.18,0-13-5.82-13-13v0c0-7.18,5.82-13,13-13h24c7.18,0,13,5.82,13,13v0
	C346,83.18,340.18,89,333,89z"/>
<rect x="327" y="63" class="st2" width="19" height="13"/>
</svg>
