<?xml version="1.0" encoding="utf-8"?>
<!-- Generator: Adobe Illustrator 25.0.1, SVG Export Plug-In . SVG Version: 6.00 Build 0)  -->
<svg version="1.1" id="Слой_1" xmlns="http://www.w3.org/2000/svg" xmlns:xlink="http://www.w3.org/1999/xlink" x="0px" y="0px"
	 viewBox="0 0 700 147" style="enable-background:new 0 0 700 147;" xml:space="preserve">
<style type="text/css">
	.st0{display:none;}
	.st1{display:inline;fill:#002329;}
	.st2{fill:#13C2C2;}
	.st3{fill:none;stroke:#13C2C2;stroke-width:27;stroke-miterlimit:10;}
	.st4{fill:none;stroke:#13C2C2;stroke-width:28;stroke-linecap:round;stroke-miterlimit:10;}
	.st5{fill:none;stroke:#13C2C2;stroke-width:27;stroke-linecap:round;stroke-miterlimit:10;}
</style>
<g class="st0">
	<rect y="-223" class="st1" width="700" height="700"/>
</g>
<path class="st2" d="M76.5,147h-1c-7.42,0-13.5-6.07-13.5-13.5v-80C62,46.07,68.07,40,75.5,40h1C83.93,40,90,46.07,90,53.5v80
	C90,140.93,83.93,147,76.5,147z"/>
<path class="st2" d="M147,147L147,147c-7.73,0-14-6.27-14-14V45c0-7.73,6.27-14,14-14h0c7.73,0,14,6.27,14,14v88
	C161,140.73,154.73,147,147,147z"/>
<path class="st2" d="M217.5,147L217.5,147c-7.46,0-13.5-6.04-13.5-13.5v-67c0-7.46,6.04-13.5,13.5-13.5h0
	c7.46,0,13.5,6.04,13.5,13.5v67C231,140.96,224.96,147,217.5,147z"/>
<path class="st2" d="M368.13,88.91h22.67c0.77-4.19,1.19-8.5,1.19-12.91c0-39.21-31.79-71-71-71s-71,31.79-71,71s31.79,71,71,71
	c17.86,0,34.16-6.61,46.64-17.49c3.01-1.98,5-5.38,5-9.25c0-6.11-4.95-11.06-11.06-11.06c-3.3,0-6.25,1.45-8.28,3.74l-0.15-0.14
	c-8.59,7.52-19.83,12.08-32.14,12.08c-22.52,0-41.47-15.24-47.13-35.96h73.67H368.13z M321,27.13c22.52,0,41.47,15.24,47.13,35.96
	h-94.27C279.53,42.37,298.48,27.13,321,27.13z"/>
<path class="st2" d="M410.64,88.91h73.67c-5.66,20.72-24.61,35.96-47.13,35.96c-12.31,0-23.55-4.56-32.14-12.08l-0.15,0.14
	c-2.03-2.29-4.98-3.74-8.28-3.74c-6.11,0-11.06,4.95-11.06,11.06c0,3.87,1.99,7.27,5,9.25c12.48,10.89,28.78,17.49,46.64,17.49
	c39.21,0,71-31.79,71-71s-31.79-71-71-71s-71,31.79-71,71c0,4.41,0.42,8.72,1.19,12.91h22.67H410.64z M484.32,63.09h-94.27
	c5.66-20.72,24.61-35.96,47.13-35.96S478.65,42.37,484.32,63.09z"/>
<path class="st3" d="M76,52.75C76,33.01,92.01,17,111.75,17h0c19.74,0,35.75,16.01,35.75,35.75"/>
<path class="st3" d="M147,65.75C147,46.01,162.01,30,181.75,30h0c19.74,0,35.75,16.01,35.75,35.75"/>
<g>
	<path class="st4" d="M589,133L589,133c-25.3,0-46-20.7-46-46V14"/>
	<line class="st4" x1="594.62" y1="43" x2="543" y2="43"/>
</g>
<path class="st5" d="M59,32.5L59,32.5c9.08,0,16.5,7.42,16.5,16.5"/>
</svg>
